<?xml version="1.0" encoding="utf-8"?>
<!-- Generator: Adobe Illustrator 24.0.1, SVG Export Plug-In . SVG Version: 6.00 Build 0)  -->
<svg version="1.1" id="Lager_1" xmlns="http://www.w3.org/2000/svg" xmlns:xlink="http://www.w3.org/1999/xlink" x="0px" y="0px"
	 viewBox="0 0 397 111" style="enable-background:new 0 0 397 111;" xml:space="preserve">
<style type="text/css">
	.st0{fill:none;}
	.st1{enable-background:new    ;}
	.st2{fill:#202F33;}
	.st3{fill:none;stroke:#202F33;stroke-miterlimit:10;}
</style>
<g id="Lager_1_1_">
</g>
<g id="Lager_2_1_">
	<rect x="10" y="12" class="st0" width="372" height="50.5"/>
	<g class="st1">
		<path class="st2" d="M34.4,22.3v8.4h31.4V41H34.4v19.3h-13V12h46.2v10.3H34.4z"/>
		<path class="st2" d="M78.6,60.3V12h13v48.3H78.6z"/>
		<path class="st2" d="M152.4,60.3l-32.6-33.2v33.2h-13V12h14.2l32.6,33.3V12h13v48.3H152.4z"/>
		<path class="st2" d="M220.5,51.2h-26.9l-4.5,9.1h-14.6L199.7,12h14.6l25.3,48.3H225L220.5,51.2z M198.2,41.7h17.6L207.1,24
			L198.2,41.7z"/>
		<path class="st2" d="M293.1,60.3l-32.6-33.2v33.2h-13V12h14.2l32.6,33.3V12h13v48.3H293.1z"/>
		<path class="st2" d="M354.3,35.5l22.9,24.8h-15.6L346.5,44l-15,16.3h-15.6l22.9-24.8L316.9,12h15.6l13.9,15.1l14-15.1h15.6
			L354.3,35.5z"/>
	</g>
</g>
<g id="Lager_3">
	<g class="st1">
		<path class="st2" d="M56.4,79.5c-0.4-0.2-0.8-0.4-1.4-0.6s-1.1-0.4-1.8-0.6S51.9,78,51,77.9c-0.8-0.1-1.7-0.2-2.8-0.2
			c-1.2,0-2.3,0.1-3.3,0.2s-1.8,0.4-2.4,0.7c-0.7,0.3-1.2,0.7-1.5,1.1s-0.5,1-0.5,1.6c0,0.5,0.2,1,0.5,1.4c0.3,0.4,0.8,0.7,1.3,1
			s1.2,0.6,2,0.8c0.8,0.2,1.6,0.5,2.4,0.7c0.8,0.2,1.7,0.4,2.6,0.7c0.9,0.2,1.8,0.5,2.6,0.7c0.8,0.3,1.6,0.5,2.4,0.9
			c0.8,0.3,1.4,0.7,2,1.1s1,0.9,1.3,1.5c0.3,0.5,0.5,1.2,0.5,1.9c0,0.8-0.1,1.5-0.4,2c-0.3,0.6-0.7,1.1-1.2,1.5
			c-0.5,0.4-1.1,0.8-1.8,1c-0.7,0.3-1.4,0.5-2.1,0.7c-0.8,0.2-1.5,0.3-2.4,0.3c-0.8,0.1-1.6,0.1-2.4,0.1c-1.8,0-3.4-0.1-4.9-0.4
			c-1.5-0.3-2.9-0.6-4.2-1.1v-2.3c1.4,0.8,2.8,1.4,4.4,1.7c1.5,0.3,3.1,0.5,4.8,0.5c1.2,0,2.3-0.1,3.3-0.2c1-0.1,1.9-0.4,2.6-0.7
			c0.7-0.3,1.3-0.7,1.7-1.2c0.4-0.5,0.6-1.1,0.6-1.8c0-0.6-0.2-1.1-0.5-1.5c-0.3-0.4-0.8-0.8-1.3-1.1c-0.6-0.3-1.2-0.6-2-0.9
			c-0.8-0.3-1.5-0.5-2.4-0.7c-0.8-0.2-1.7-0.4-2.6-0.6c-0.9-0.2-1.8-0.4-2.6-0.7c-0.8-0.2-1.6-0.5-2.4-0.8c-0.8-0.3-1.4-0.7-2-1.1
			c-0.6-0.4-1-0.9-1.3-1.4c-0.3-0.5-0.5-1.2-0.5-1.9c0-0.7,0.1-1.3,0.4-1.9c0.3-0.5,0.6-1,1.1-1.4c0.5-0.4,1-0.7,1.6-1
			c0.6-0.3,1.3-0.5,2-0.6c0.7-0.2,1.4-0.3,2.2-0.3s1.5-0.1,2.2-0.1c0.8,0,1.6,0,2.3,0.1c0.7,0.1,1.4,0.2,2.1,0.3
			c0.7,0.1,1.3,0.2,2,0.4c0.6,0.2,1.3,0.3,1.9,0.5V79.5z"/>
		<path class="st2" d="M74.4,78.1v19.1h-1.9V78.1h-9.5v-1.7h20.8v1.7H74.4z"/>
		<path class="st2" d="M114.3,86.8c0,1.9-0.3,3.5-1,4.8c-0.7,1.4-1.6,2.5-2.8,3.4c-1.2,0.9-2.6,1.5-4.2,2s-3.3,0.6-5.2,0.6
			c-1.9,0-3.6-0.2-5.2-0.6s-3-1.1-4.2-2c-1.2-0.9-2.1-2-2.8-3.4c-0.7-1.4-1-3-1-4.8c0-1.2,0.2-2.4,0.5-3.4c0.3-1,0.8-1.9,1.3-2.7
			c0.6-0.8,1.2-1.5,2-2.1c0.8-0.6,1.7-1.1,2.7-1.5s2-0.7,3.2-0.9c1.1-0.2,2.3-0.3,3.6-0.3c1.9,0,3.6,0.2,5.2,0.6s3,1.1,4.2,2
			s2.1,2,2.8,3.4S114.3,85,114.3,86.8z M112.3,86.8c0-1.5-0.2-2.8-0.7-3.9c-0.5-1.1-1.2-2.1-2.1-2.9c-0.9-0.8-2.1-1.4-3.5-1.8
			c-1.4-0.4-3-0.6-4.9-0.6c-1.8,0-3.5,0.2-4.9,0.6s-2.6,1-3.5,1.8c-0.9,0.8-1.7,1.7-2.2,2.9c-0.5,1.1-0.7,2.4-0.7,3.9
			c0,1.5,0.2,2.8,0.7,3.9c0.5,1.1,1.2,2.1,2.2,2.9c0.9,0.8,2.1,1.4,3.5,1.8s3,0.6,4.9,0.6c1.8,0,3.5-0.2,4.9-0.6
			c1.4-0.4,2.6-1,3.5-1.8c0.9-0.8,1.6-1.7,2.1-2.9C112.1,89.6,112.3,88.3,112.3,86.8z"/>
		<path class="st2" d="M141,96.4c-0.7,0.3-1.5,0.5-2.2,0.7c-0.8,0.2-1.6,0.3-2.4,0.4c-0.8,0.1-1.8,0.2-2.8,0.2
			c-1.2,0-2.4-0.1-3.5-0.3c-1.1-0.2-2.2-0.5-3.2-0.9c-1-0.4-1.9-0.9-2.7-1.5c-0.8-0.6-1.5-1.3-2.1-2.1c-0.6-0.8-1-1.7-1.3-2.7
			c-0.3-1-0.5-2.1-0.5-3.3s0.2-2.3,0.5-3.3c0.3-1,0.7-1.9,1.3-2.7c0.6-0.8,1.3-1.5,2.1-2.1c0.8-0.6,1.7-1.1,2.7-1.5
			c1-0.4,2-0.7,3.2-0.9c1.1-0.2,2.3-0.3,3.6-0.3c1,0,1.9,0,2.8,0.2c0.8,0.1,1.7,0.2,2.4,0.4c0.8,0.2,1.5,0.4,2.2,0.6
			c0.7,0.2,1.4,0.5,2.2,0.8v2.3c-0.6-0.4-1.2-0.7-1.8-1c-0.7-0.3-1.4-0.6-2.1-0.8c-0.8-0.2-1.6-0.4-2.4-0.6
			c-0.9-0.1-1.8-0.2-2.8-0.2c-2,0-3.7,0.2-5.2,0.7c-1.5,0.4-2.7,1-3.6,1.8c-1,0.8-1.7,1.8-2.1,2.9s-0.7,2.4-0.7,3.8s0.2,2.6,0.7,3.8
			c0.5,1.1,1.2,2.1,2.1,2.9c1,0.8,2.2,1.4,3.6,1.8c1.5,0.4,3.2,0.6,5.2,0.6c1,0,1.9-0.1,2.8-0.2c0.9-0.1,1.7-0.3,2.5-0.6
			c0.8-0.2,1.5-0.5,2.1-0.8c0.7-0.3,1.2-0.7,1.8-1v2.3C142.4,95.9,141.7,96.2,141,96.4z"/>
		<path class="st2" d="M152.7,86.2l15.5-9.8h2.6l-15.2,10l16.2,10.8h-3.2l-15.8-10.6v10.6h-1.9V76.4h1.9V86.2z"/>
		<path class="st2" d="M198.3,91.5c0,0.8-0.1,1.5-0.3,2.1s-0.5,1.1-0.9,1.5c-0.4,0.4-0.8,0.8-1.4,1c-0.5,0.3-1.1,0.5-1.7,0.6
			s-1.3,0.3-2,0.3s-1.5,0.1-2.3,0.1h-12V76.4h11.7c0.6,0,1.2,0,1.8,0.1c0.6,0.1,1.2,0.1,1.7,0.3c0.6,0.1,1.1,0.3,1.5,0.6
			c0.5,0.2,0.9,0.6,1.2,1c0.3,0.4,0.6,0.9,0.8,1.4c0.2,0.6,0.3,1.2,0.3,2c0,0.7-0.1,1.3-0.2,1.8c-0.2,0.5-0.4,0.9-0.8,1.3
			c-0.3,0.4-0.8,0.6-1.3,0.9c-0.5,0.2-1.1,0.4-1.8,0.5c1,0.1,1.9,0.2,2.6,0.5c0.7,0.3,1.3,0.6,1.8,1.1c0.5,0.5,0.8,1,1,1.6
			S198.3,90.7,198.3,91.5z M195.1,81.7c0-0.3,0-0.6-0.1-0.9c0-0.3-0.1-0.6-0.3-0.8c-0.1-0.3-0.3-0.5-0.6-0.7
			c-0.3-0.2-0.6-0.4-1.1-0.6c-0.5-0.2-1-0.3-1.7-0.4c-0.7-0.1-1.5-0.1-2.5-0.1h-9.2v7.2h9.2c1.4,0,2.5-0.1,3.3-0.3s1.4-0.5,1.9-0.8
			c0.4-0.3,0.7-0.7,0.9-1.2C195,82.7,195.1,82.2,195.1,81.7z M196.4,91.4c0-0.8-0.1-1.5-0.4-2c-0.3-0.6-0.7-1-1.3-1.4
			c-0.6-0.4-1.3-0.6-2.2-0.8c-0.9-0.2-1.9-0.2-3.2-0.2h-9.7v8.4h10c1.3,0,2.3-0.1,3.2-0.2c0.9-0.1,1.6-0.4,2.1-0.7
			c0.5-0.3,0.9-0.7,1.1-1.3C196.2,92.8,196.4,92.2,196.4,91.4z"/>
		<path class="st2" d="M207.5,88.3v8.9h-1.9V76.4H216c1.6,0,2.9,0.1,4.1,0.4s2.1,0.6,2.8,1.1c0.7,0.5,1.2,1.1,1.6,1.9
			s0.5,1.6,0.5,2.6c0,1.6-0.4,2.8-1.2,3.7c-0.8,0.9-2.1,1.6-4,1.9l7.1,9.2h-2.4l-6.7-9c-0.3,0-0.6,0-0.9,0c-0.3,0-0.6,0-0.9,0H207.5
			z M223,82.4c0-0.9-0.2-1.6-0.5-2.2c-0.3-0.5-0.8-1-1.5-1.3c-0.7-0.3-1.6-0.5-2.8-0.6c-1.1-0.1-2.6-0.2-4.2-0.2h-6.5v8.4h6.4
			c1.7,0,3.1,0,4.2-0.1c1.2-0.1,2.1-0.3,2.8-0.6c0.7-0.3,1.2-0.7,1.6-1.3C222.8,84,223,83.3,223,82.4z"/>
		<path class="st2" d="M258.1,86.8c0,1.9-0.3,3.5-1,4.8c-0.7,1.4-1.6,2.5-2.8,3.4c-1.2,0.9-2.6,1.5-4.2,2s-3.3,0.6-5.2,0.6
			c-1.9,0-3.6-0.2-5.2-0.6c-1.6-0.4-3-1.1-4.2-2c-1.2-0.9-2.1-2-2.8-3.4c-0.7-1.4-1-3-1-4.8c0-1.2,0.2-2.4,0.5-3.4
			c0.3-1,0.8-1.9,1.3-2.7c0.6-0.8,1.2-1.5,2-2.1c0.8-0.6,1.7-1.1,2.7-1.5s2-0.7,3.2-0.9c1.1-0.2,2.3-0.3,3.6-0.3
			c1.9,0,3.6,0.2,5.2,0.6s3,1.1,4.2,2c1.2,0.9,2.1,2,2.8,3.4S258.1,85,258.1,86.8z M256.2,86.8c0-1.5-0.2-2.8-0.7-3.9
			s-1.2-2.1-2.1-2.9c-0.9-0.8-2.1-1.4-3.5-1.8c-1.4-0.4-3-0.6-4.9-0.6c-1.8,0-3.5,0.2-4.9,0.6c-1.4,0.4-2.6,1-3.5,1.8
			c-0.9,0.8-1.7,1.7-2.2,2.9c-0.5,1.1-0.7,2.4-0.7,3.9c0,1.5,0.2,2.8,0.7,3.9s1.2,2.1,2.2,2.9c0.9,0.8,2.1,1.4,3.5,1.8
			c1.4,0.4,3,0.6,4.9,0.6c1.8,0,3.5-0.2,4.9-0.6s2.6-1,3.5-1.8c0.9-0.8,1.6-1.7,2.1-2.9S256.2,88.3,256.2,86.8z"/>
		<path class="st2" d="M267.6,86.2l15.5-9.8h2.6l-15.2,10l16.2,10.8h-3.2l-15.8-10.6v10.6h-1.9V76.4h1.9V86.2z"/>
		<path class="st2" d="M292.6,97.2V76.4h1.9v20.8H292.6z"/>
		<path class="st2" d="M323.5,97.2l-18.1-18.3v18.3h-1.9V76.4h2.1l18.1,18.4V76.4h1.9v20.8H323.5z"/>
		<path class="st2" d="M346.7,76c1,0,1.9,0,2.7,0.1c0.8,0.1,1.6,0.2,2.4,0.4c0.8,0.2,1.5,0.4,2.2,0.6c0.7,0.2,1.4,0.5,2.2,0.8v2.3
			c-0.6-0.4-1.2-0.7-1.8-1s-1.4-0.6-2.1-0.8c-0.8-0.2-1.6-0.4-2.4-0.6s-1.8-0.2-2.8-0.2c-2,0-3.8,0.2-5.3,0.6
			c-1.5,0.4-2.8,1-3.8,1.8s-1.8,1.7-2.2,2.9s-0.7,2.4-0.7,3.8c0,1.3,0.2,2.5,0.7,3.7c0.5,1.1,1.2,2.1,2.2,2.9c1,0.8,2.2,1.4,3.7,1.9
			c1.5,0.5,3.2,0.7,5.3,0.7c0.8,0,1.6,0,2.3-0.1s1.5-0.1,2.2-0.2c0.7-0.1,1.3-0.2,1.9-0.3c0.6-0.1,1-0.2,1.4-0.4v-6.3h-8.5v-1.8
			h10.4V96c-0.7,0.3-1.5,0.5-2.3,0.7c-0.8,0.2-1.5,0.4-2.4,0.5c-0.8,0.1-1.7,0.2-2.5,0.3s-1.8,0.1-2.7,0.1c-2,0-3.8-0.2-5.4-0.7
			c-1.7-0.4-3.1-1.1-4.4-2c-1.2-0.9-2.2-2-2.9-3.4c-0.7-1.4-1-2.9-1-4.8c0-1.2,0.2-2.3,0.5-3.3c0.3-1,0.8-1.9,1.4-2.7
			c0.6-0.8,1.3-1.5,2.1-2.1c0.8-0.6,1.8-1.1,2.8-1.5c1-0.4,2.1-0.7,3.3-0.9C344.3,76.1,345.5,76,346.7,76z"/>
	</g>
</g>
<g id="Lager_4">
	<line class="st3" x1="21.5" y1="69.5" x2="376.5" y2="69.5"/>
</g>
</svg>
