<?xml version="1.0" encoding="utf-8"?>
<!-- Generator: Adobe Illustrator 24.0.1, SVG Export Plug-In . SVG Version: 6.00 Build 0)  -->
<svg version="1.1" xmlns="http://www.w3.org/2000/svg" xmlns:xlink="http://www.w3.org/1999/xlink" x="0px" y="0px"
	 viewBox="0 0 1366 155" style="enable-background:new 0 0 1366 155;" xml:space="preserve">
<style type="text/css">
	.st0{fill:none;}
	.st1{fill:#DDB976;}
</style>
<g id="Lager_1">
</g>
<g id="Lager_2">
	<g>
		<rect x="9" y="24" class="st0" width="1366" height="239"/>
		<path class="st1" d="M124.1,93.2c7.1,5.7,10.6,12.9,10.6,21.4c0,10.5-4.7,18.7-14.1,24.6c-9.4,5.9-22.8,8.9-40.2,8.9
			c-3.8,0-7.1-0.1-9.8-0.2c-9.2-0.3-18.2-0.4-26.9-0.4c-12.1,0-21.4,0.2-27.7,0.6v-4.1c4.6-0.3,8-0.8,10-1.6s3.4-2.4,4.2-4.7
			c0.7-2.3,1.1-6.1,1.1-11.2V45.6c0-5.2-0.4-8.9-1.1-11.2c-0.7-2.3-2.1-3.9-4.2-4.7c-2-0.8-5.4-1.4-10-1.6V24
			c6.4,0.4,15.5,0.6,27.3,0.6l23.3-0.2c2.7-0.1,5.8-0.2,9.2-0.2c16.3,0,28.5,2.4,36.4,7.2c8,4.8,11.9,11.7,11.9,20.7
			c0,6.9-2.9,12.9-8.6,17.9c-5.7,5-15,8.8-27.7,11.5v0.4C104.9,83.7,117,87.4,124.1,93.2z M66.3,29.5c-1.5,1-2.5,2.7-3.1,5.1
			c-0.5,2.4-0.8,6.1-0.8,11v35.9h6.7c8.7,0,14.7-2.4,18.1-7.1c3.3-4.8,5-11.4,5-20c0-8.8-1.5-15.4-4.5-19.8c-3-4.4-7.9-6.5-14.7-6.5
			C70.1,28.1,67.8,28.6,66.3,29.5z M95.1,135.9c4.6-5,6.9-12.3,6.9-22.1c0-9.5-2.3-16.7-7-21.5C90.3,87.4,82.8,85,72.6,85H62.4v41.4
			c0,4.9,0.3,8.5,0.8,10.8c0.5,2.3,1.6,3.9,3.1,4.8c1.5,0.9,3.8,1.3,6.9,1.3C83.2,143.3,90.5,140.9,95.1,135.9z"/>
		<path class="st1" d="M257.9,24v4.1c-2.7,1.2-5.5,3.5-8.3,6.8c-2.8,3.3-6.1,8.3-9.9,15l-23.3,42.8v32.4c0,5.4,0.5,9.4,1.4,11.9
			c0.9,2.5,2.7,4.2,5.3,5.1c2.6,0.9,6.7,1.5,12.2,1.7v4.1c-7.1-0.4-18.8-0.6-35.1-0.6c-16.6,0-27.9,0.2-34.1,0.6v-4.1
			c5.6-0.3,9.7-0.8,12.2-1.7c2.6-0.9,4.4-2.6,5.3-5.1c1-2.5,1.4-6.5,1.4-11.9v-22l-36.5-63.4c-2.3-3.9-4.4-6.7-6.1-8.4
			c-1.8-1.6-3.7-2.7-5.7-3.1V24c8.4,0.7,16.5,1,24.1,1c10.7,0,22.7-0.3,35.9-1v4.3c-4.1,0-7.3,0.4-9.6,1.1c-2.3,0.7-3.5,2.2-3.5,4.4
			c0,1.8,0.7,3.9,2.2,6.3l27.7,48.3l13.1-23.9c5.2-9.5,7.8-17.3,7.8-23.5c0-8.3-5.1-12.6-15.3-13.1V24c8.3,0.4,15.9,0.6,22.8,0.6
			C249,24.6,254.2,24.4,257.9,24z"/>
		<path class="st1" d="M421.7,51.7c0,7.6,0.2,13.6,0.6,18h-4.7c-1.9-10.3-4.2-18.4-6.8-24.3c-2.7-5.8-6.1-10.1-10.2-12.8
			c-4.2-2.7-9.5-4-16-4h-6.3v95.7c0,5.7,0.5,9.9,1.6,12.4c1.1,2.6,3,4.4,5.7,5.3c2.7,1,7.1,1.6,13.3,1.8v4.1
			c-7.3-0.4-19.6-0.6-36.7-0.6c-17.3,0-29.2,0.2-35.7,0.6v-4.1c6.1-0.3,10.5-0.9,13.3-1.8c2.7-0.9,4.6-2.7,5.7-5.3
			c1.1-2.6,1.6-6.7,1.6-12.4V28.7h-6.3c-6.5,0-11.9,1.3-16,4c-4.1,2.7-7.5,6.9-10.2,12.8c-2.7,5.8-4.9,13.9-6.8,24.3H303
			c0.4-4.4,0.6-10.3,0.6-18c0-8.2-0.5-17.4-1.4-27.7c11.8,0.4,31.8,0.6,60,0.6c28.7,0,49-0.2,61-0.6
			C422.2,34.3,421.7,43.6,421.7,51.7z"/>
		<path class="st1" d="M581.2,28.1c-4.6,0.3-8,0.8-10,1.6c-2,0.8-3.4,2.4-4.2,4.7c-0.7,2.3-1.1,6.1-1.1,11.2v80.8
			c0,5.2,0.4,8.9,1.1,11.2c0.7,2.3,2.2,3.9,4.3,4.7c2.1,0.8,5.4,1.4,9.9,1.6v4.1c-6.3-0.4-16.2-0.6-29.8-0.6
			c-13.7,0-24.4,0.2-32,0.6v-4.1c4.6-0.3,8-0.8,10-1.6c2-0.8,3.4-2.4,4.2-4.7c0.7-2.3,1.1-6.1,1.1-11.2V86.8h-52.4v39.6
			c0,5.2,0.4,8.9,1.1,11.2c0.7,2.3,2.2,3.9,4.3,4.7c2.1,0.8,5.4,1.4,9.9,1.6v4.1c-7.5-0.4-18.2-0.6-32-0.6
			c-13.3,0-23.3,0.2-29.8,0.6v-4.1c4.6-0.3,8-0.8,10-1.6s3.4-2.4,4.2-4.7c0.7-2.3,1.1-6.1,1.1-11.2V45.6c0-5.2-0.4-8.9-1.1-11.2
			c-0.7-2.3-2.2-3.9-4.3-4.7c-2.1-0.8-5.4-1.4-9.9-1.6V24c6.5,0.4,16.5,0.6,29.8,0.6c13.9,0,24.5-0.2,32-0.6v4.1
			c-4.6,0.3-8,0.8-10,1.6c-2,0.8-3.4,2.4-4.2,4.7c-0.7,2.3-1.1,6.1-1.1,11.2v37.1h52.4V45.6c0-5.2-0.4-8.9-1.1-11.2
			c-0.7-2.3-2.2-3.9-4.3-4.7c-2.1-0.8-5.4-1.4-9.9-1.6V24c7.6,0.4,18.3,0.6,32,0.6c13.6,0,23.5-0.2,29.8-0.6V28.1z"/>
		<path class="st1" d="M703,148c-8.8-0.4-23.7-0.6-44.7-0.6c-28,0-49.1,0.2-63.2,0.6v-4.1c4.6-0.3,8-0.8,10-1.6s3.4-2.4,4.2-4.7
			c0.7-2.3,1.1-6.1,1.1-11.2V45.6c0-5.2-0.4-8.9-1.1-11.2c-0.7-2.3-2.2-3.9-4.3-4.7c-2.1-0.8-5.4-1.4-9.9-1.6V24
			c14.1,0.4,35.2,0.6,63.2,0.6c19,0,32.6-0.2,40.6-0.6c-1,9.1-1.4,17.3-1.4,24.5c0,5.3,0.2,9.5,0.6,12.6h-4.7
			c-2-11.7-5.6-20-10.6-25c-5-5-12-7.4-20.8-7.4h-7.5c-3.5,0-6.2,0.3-8,0.9c-1.8,0.6-3,1.8-3.8,3.7c-0.7,1.8-1.1,4.7-1.1,8.7v41.6
			h9.6c6.3,0,11-2.2,14.2-6.6c3.2-4.4,5.3-9.6,6.4-15.4h4.7c-0.4,4.6-0.6,9.9-0.6,15.9v8.2c0,6.1,0.4,14.1,1.2,24.1h-4.7
			c-1-6.4-3.1-11.7-6.4-15.8c-3.3-4.1-8.3-6.2-14.8-6.2h-9.6v42.4c0,3.9,0.4,6.8,1.1,8.7c0.7,1.8,2,3.1,3.8,3.7
			c1.8,0.6,4.4,0.9,8,0.9h8.8c9.7,0,17.2-2.8,22.7-8.4c5.5-5.6,9.3-15,11.5-28.2h4.7c-0.4,3.8-0.6,8.7-0.6,14.7
			C701.6,129.3,702,138.1,703,148z"/>
		<path class="st1" d="M878.4,84.4c8.3,6.8,12.4,14.8,12.4,24.1c0,12.6-5,22.4-14.9,29.3c-9.9,6.9-23.7,10.3-41.4,10.3
			c-3.9,0-7.3-0.1-10-0.2c-9-0.3-17.7-0.4-26.3-0.4c-14,0-24.5,0.2-31.4,0.6v-4.1c4.5-0.3,7.8-0.8,9.9-1.6c2.1-0.8,3.5-2.4,4.3-4.7
			c0.7-2.3,1.1-6.1,1.1-11.2V25.2c0-5.2-0.4-8.9-1.1-11.2c-0.7-2.3-2.2-3.9-4.3-4.7c-2.1-0.8-5.4-1.4-9.9-1.6V3.6
			c6.9,0.4,17.3,0.6,31,0.6L820.5,4c2.7-0.1,5.8-0.2,9.4-0.2c16.3,0,28.8,2.9,37.4,8.8c8.6,5.8,13,13.6,13,23.3
			c0,7.9-3.4,15.2-10.3,22c-6.9,6.8-17,11.4-30.5,13.9v0.4C857.1,73.5,870.1,77.6,878.4,84.4z M819.2,9.1c-1.7,1-2.9,2.7-3.6,5.1
			c-0.7,2.4-1,6.1-1,11v46.1h8.8c8.8,0,15-3,18.6-9.1c3.5-6,5.3-14.1,5.3-24.2c0-10.2-1.6-17.8-4.8-22.8c-3.2-5-8.3-7.5-15.2-7.5
			C823.6,7.7,820.9,8.2,819.2,9.1z M857,107.6c0-10.7-2.7-18.9-8.2-24.5c-5.4-5.6-14-8.4-25.7-8.4h-8.6v51.6c0,4.9,0.3,8.5,1,10.8
			c0.7,2.3,2,3.9,4,4.8c2,0.9,5,1.3,9.1,1.3C847.6,143.3,857,131.4,857,107.6z"/>
		<path class="st1" d="M1010.6,28.6c10.3,5,18.4,12.2,24.1,21.8c5.7,9.6,8.6,21,8.6,34.4c0,13.1-2.9,24.6-8.8,34.6
			c-5.8,10-14,17.7-24.5,23.3c-10.5,5.5-22.4,8.3-35.7,8.3c-13.7,0-25.8-2.5-36.1-7.4c-10.3-5-18.4-12.2-24.1-21.8s-8.6-21-8.6-34.4
			c0-13.1,2.9-24.6,8.8-34.6c5.8-10,14-17.7,24.5-23.3c10.5-5.5,22.4-8.3,35.7-8.3C988.3,21.1,1000.3,23.6,1010.6,28.6z M955,32.7
			c-5.4,5.2-9.5,12.5-12.4,21.8c-2.9,9.3-4.4,20-4.4,31.9c0,12.1,1.6,22.8,4.9,32c3.3,9.2,7.7,16.4,13.4,21.3
			c5.6,5,11.9,7.4,18.7,7.4c7.1,0,13.3-2.6,18.7-7.9c5.4-5.2,9.5-12.5,12.4-21.8c2.9-9.3,4.4-20,4.4-31.9c0-12.1-1.6-22.8-4.9-32
			c-3.3-9.2-7.7-16.4-13.4-21.3c-5.6-5-11.9-7.4-18.7-7.4C966.6,24.8,960.4,27.4,955,32.7z"/>
		<path class="st1" d="M1165.5,28.6c10.3,5,18.4,12.2,24.1,21.8c5.7,9.6,8.6,21,8.6,34.4c0,13.1-2.9,24.6-8.8,34.6
			c-5.8,10-14,17.7-24.5,23.3c-10.5,5.5-22.4,8.3-35.7,8.3c-13.7,0-25.8-2.5-36.1-7.4c-10.3-5-18.4-12.2-24.1-21.8s-8.6-21-8.6-34.4
			c0-13.1,2.9-24.6,8.8-34.6c5.8-10,14-17.7,24.5-23.3c10.5-5.5,22.4-8.3,35.7-8.3C1143.1,21.1,1155.1,23.6,1165.5,28.6z
			 M1109.9,32.7c-5.4,5.2-9.5,12.5-12.4,21.8c-2.9,9.3-4.4,20-4.4,31.9c0,12.1,1.6,22.8,4.9,32c3.3,9.2,7.7,16.4,13.4,21.3
			c5.6,5,11.9,7.4,18.7,7.4c7.1,0,13.3-2.6,18.7-7.9c5.4-5.2,9.5-12.5,12.4-21.8c2.9-9.3,4.4-20,4.4-31.9c0-12.1-1.6-22.8-4.9-32
			c-3.3-9.2-7.7-16.4-13.4-21.3c-5.6-5-11.9-7.4-18.7-7.4C1121.5,24.8,1115.2,27.4,1109.9,32.7z"/>
		<path class="st1" d="M1343.3,139.3c1.9,1.8,4.3,3.3,7.1,4.7v4.1c-9.4-0.4-19.8-0.6-31.2-0.6c-9.7,0-18.9,0.2-27.7,0.6v-4.1
			c4.4-0.1,7.4-0.5,9.2-1.1c1.8-0.6,2.7-1.5,2.7-2.8s-0.7-3-2.2-5.3l-26.7-38.4c-2.3-3.3-4.6-5.7-6.9-7.4c-2.3-1.7-5.4-2.6-9.2-2.8
			v40.2c0,5.2,0.4,8.9,1.1,11.2c0.7,2.3,2.1,3.9,4.2,4.7s5.4,1.4,10,1.6v4.1c-6.9-0.4-17-0.6-30.2-0.6c-14.1,0-24.7,0.2-31.6,0.6
			v-4.1c4.6-0.3,8-0.8,10-1.6s3.4-2.4,4.2-4.7c0.7-2.3,1.1-6.1,1.1-11.2V45.6c0-5.2-0.4-8.9-1.1-11.2c-0.7-2.3-2.2-3.9-4.3-4.7
			c-2.1-0.8-5.4-1.4-9.9-1.6V24c6.9,0.4,17.5,0.6,31.6,0.6c13.2,0,23.3-0.2,30.2-0.6v4.1c-4.6,0.3-8,0.8-10,1.6
			c-2,0.8-3.4,2.4-4.2,4.7c-0.7,2.3-1.1,6.1-1.1,11.2v36.5c5.8-0.5,11.2-2,16.1-4.5c4.9-2.4,10.1-6.3,15.7-11.6l12.4-12.6
			c5.3-5.2,8-9.9,8-14.1c0-3.3-1.4-5.9-4.3-8c-2.9-2-6.5-3.2-11-3.5V24c9.8,0.4,20.3,0.6,31.4,0.6c7.2,0,13.3-0.2,18.2-0.6v3.9
			c-4.8,1.1-9.3,3-13.7,5.6c-4.4,2.7-9,6.4-14.1,11.1l-25.1,24.7l44.7,62.2C1339.2,134.9,1341.4,137.5,1343.3,139.3z"/>
	</g>
	<g>
	</g>
	<g>
	</g>
	<g>
	</g>
	<g>
	</g>
	<g>
	</g>
	<g>
	</g>
	<g>
	</g>
	<g>
	</g>
	<g>
	</g>
	<g>
	</g>
	<g>
	</g>
	<g>
	</g>
	<g>
	</g>
	<g>
	</g>
	<g>
	</g>
</g>
</svg>
